<svg id="visual" viewBox="0 0 960 540" width="960" height="540" xmlns="http://www.w3.org/2000/svg" xmlns:xlink="http://www.w3.org/1999/xlink" version="1.1"><path d="M0 462L10 461.7C20 461.3 40 460.7 60 462C80 463.3 100 466.7 120 468C140 469.3 160 468.7 180 466.5C200 464.3 220 460.7 240 461C260 461.3 280 465.7 300 467.5C320 469.3 340 468.7 360 465.2C380 461.7 400 455.3 420 452.3C440 449.3 460 449.7 480 452C500 454.3 520 458.7 540 458.7C560 458.7 580 454.3 600 452.5C620 450.7 640 451.3 660 454.3C680 457.3 700 462.7 720 462.3C740 462 760 456 780 455.8C800 455.7 820 461.3 840 467C860 472.7 880 478.3 900 476.3C920 474.3 940 464.7 950 459.8L960 455L960 541L950 541C940 541 920 541 900 541C880 541 860 541 840 541C820 541 800 541 780 541C760 541 740 541 720 541C700 541 680 541 660 541C640 541 620 541 600 541C580 541 560 541 540 541C520 541 500 541 480 541C460 541 440 541 420 541C400 541 380 541 360 541C340 541 320 541 300 541C280 541 260 541 240 541C220 541 200 541 180 541C160 541 140 541 120 541C100 541 80 541 60 541C40 541 20 541 10 541L0 541Z" fill="#6e6e6e"></path><path d="M0 486L10 486C20 486 40 486 60 488.2C80 490.3 100 494.7 120 493.5C140 492.3 160 485.7 180 483.2C200 480.7 220 482.3 240 481.7C260 481 280 478 300 478.8C320 479.7 340 484.3 360 486.5C380 488.7 400 488.3 420 490C440 491.7 460 495.3 480 491.5C500 487.7 520 476.3 540 475.8C560 475.3 580 485.7 600 491C620 496.3 640 496.7 660 491.8C680 487 700 477 720 477.3C740 477.7 760 488.3 780 493.3C800 498.3 820 497.7 840 497.2C860 496.7 880 496.3 900 493.7C920 491 940 486 950 483.5L960 481L960 541L950 541C940 541 920 541 900 541C880 541 860 541 840 541C820 541 800 541 780 541C760 541 740 541 720 541C700 541 680 541 660 541C640 541 620 541 600 541C580 541 560 541 540 541C520 541 500 541 480 541C460 541 440 541 420 541C400 541 380 541 360 541C340 541 320 541 300 541C280 541 260 541 240 541C220 541 200 541 180 541C160 541 140 541 120 541C100 541 80 541 60 541C40 541 20 541 10 541L0 541Z" fill="#565656"></path><path d="M0 510L10 509.2C20 508.3 40 506.7 60 506.2C80 505.7 100 506.3 120 504.5C140 502.7 160 498.3 180 494.3C200 490.3 220 486.7 240 489.3C260 492 280 501 300 502.7C320 504.3 340 498.7 360 495.5C380 492.3 400 491.7 420 492.5C440 493.3 460 495.7 480 498.2C500 500.7 520 503.3 540 501C560 498.7 580 491.3 600 487C620 482.7 640 481.3 660 480.7C680 480 700 480 720 479.7C740 479.3 760 478.7 780 483.2C800 487.7 820 497.3 840 497.3C860 497.3 880 487.7 900 485.2C920 482.7 940 487.3 950 489.7L960 492L960 541L950 541C940 541 920 541 900 541C880 541 860 541 840 541C820 541 800 541 780 541C760 541 740 541 720 541C700 541 680 541 660 541C640 541 620 541 600 541C580 541 560 541 540 541C520 541 500 541 480 541C460 541 440 541 420 541C400 541 380 541 360 541C340 541 320 541 300 541C280 541 260 541 240 541C220 541 200 541 180 541C160 541 140 541 120 541C100 541 80 541 60 541C40 541 20 541 10 541L0 541Z" fill="#404040"></path><path d="M0 517L10 517.3C20 517.7 40 518.3 60 518.3C80 518.3 100 517.7 120 517C140 516.3 160 515.7 180 516.3C200 517 220 519 240 516C260 513 280 505 300 502.5C320 500 340 503 360 503.3C380 503.7 400 501.3 420 499.8C440 498.3 460 497.7 480 497.3C500 497 520 497 540 500.8C560 504.7 580 512.3 600 516C620 519.7 640 519.3 660 515.3C680 511.3 700 503.7 720 503.5C740 503.3 760 510.7 780 513.7C800 516.7 820 515.3 840 512.7C860 510 880 506 900 506.3C920 506.7 940 511.3 950 513.7L960 516L960 541L950 541C940 541 920 541 900 541C880 541 860 541 840 541C820 541 800 541 780 541C760 541 740 541 720 541C700 541 680 541 660 541C640 541 620 541 600 541C580 541 560 541 540 541C520 541 500 541 480 541C460 541 440 541 420 541C400 541 380 541 360 541C340 541 320 541 300 541C280 541 260 541 240 541C220 541 200 541 180 541C160 541 140 541 120 541C100 541 80 541 60 541C40 541 20 541 10 541L0 541Z" fill="#2b2b2b"></path><path d="M0 518L10 520C20 522 40 526 60 527.5C80 529 100 528 120 527.7C140 527.3 160 527.7 180 525.8C200 524 220 520 240 517.3C260 514.7 280 513.3 300 515.8C320 518.3 340 524.7 360 525.7C380 526.7 400 522.3 420 519.2C440 516 460 514 480 515.8C500 517.7 520 523.3 540 523.5C560 523.7 580 518.3 600 516.5C620 514.7 640 516.3 660 518.5C680 520.7 700 523.3 720 524.8C740 526.3 760 526.7 780 526.2C800 525.7 820 524.3 840 522C860 519.7 880 516.3 900 517.7C920 519 940 525 950 528L960 531L960 541L950 541C940 541 920 541 900 541C880 541 860 541 840 541C820 541 800 541 780 541C760 541 740 541 720 541C700 541 680 541 660 541C640 541 620 541 600 541C580 541 560 541 540 541C520 541 500 541 480 541C460 541 440 541 420 541C400 541 380 541 360 541C340 541 320 541 300 541C280 541 260 541 240 541C220 541 200 541 180 541C160 541 140 541 120 541C100 541 80 541 60 541C40 541 20 541 10 541L0 541Z" fill="#171717"></path></svg>